<svg width="17" height="16" viewBox="0 0 17 16" fill="none" xmlns="http://www.w3.org/2000/svg">
<path d="M8.5 13.5C5.46667 13.5 3 11.0333 3 8C3 4.96667 5.46667 2.5 8.5 2.5C11.5333 2.5 14 4.96667 14 8C14 11.0333 11.5333 13.5 8.5 13.5ZM8.5 3.5C6.02 3.5 4 5.52 4 8C4 10.48 6.02 12.5 8.5 12.5C10.98 12.5 13 10.48 13 8C13 5.52 10.98 3.5 8.5 3.5Z" fill="#417F56"/>
<path d="M8.5 10.5C7.12 10.5 6 9.38 6 8C6 6.62 7.12 5.5 8.5 5.5C9.88 5.5 11 6.62 11 8C11 9.38 9.88 10.5 8.5 10.5ZM8.5 6.5C7.67333 6.5 7 7.17333 7 8C7 8.82667 7.67333 9.5 8.5 9.5C9.32667 9.5 10 8.82667 10 8C10 7.17333 9.32667 6.5 8.5 6.5Z" fill="#417F56"/>
<path d="M8.5 3.16671C8.22667 3.16671 8 2.94004 8 2.66671V1.33337C8 1.06004 8.22667 0.833374 8.5 0.833374C8.77333 0.833374 9 1.06004 9 1.33337V2.66671C9 2.94004 8.77333 3.16671 8.5 3.16671Z" fill="#417F56"/>
<path d="M3.16536 8.5H1.83203C1.5587 8.5 1.33203 8.27333 1.33203 8C1.33203 7.72667 1.5587 7.5 1.83203 7.5H3.16536C3.4387 7.5 3.66536 7.72667 3.66536 8C3.66536 8.27333 3.4387 8.5 3.16536 8.5Z" fill="#417F56"/>
<path d="M8.5 15.1667C8.22667 15.1667 8 14.94 8 14.6667V13.3334C8 13.06 8.22667 12.8334 8.5 12.8334C8.77333 12.8334 9 13.06 9 13.3334V14.6667C9 14.94 8.77333 15.1667 8.5 15.1667Z" fill="#417F56"/>
<path d="M15.1654 8.5H13.832C13.5587 8.5 13.332 8.27333 13.332 8C13.332 7.72667 13.5587 7.5 13.832 7.5H15.1654C15.4387 7.5 15.6654 7.72667 15.6654 8C15.6654 8.27333 15.4387 8.5 15.1654 8.5Z" fill="#417F56"/>
</svg>
